HIERARCHY
ROOT Hips
{
	OFFSET 0.000000 0.000000 0.000000
	CHANNELS 6 Xposition Yposition Zposition Zrotation Yrotation Xrotation 
	JOINT LowerBack
	{
		OFFSET 0.000000 0.000000 0.000000
		CHANNELS 3 Zrotation Yrotation Xrotation
		JOINT Spine
		{
			OFFSET 0.028270 2.035590 -0.193380
			CHANNELS 3 Zrotation Yrotation Xrotation
			JOINT Spine1
			{
				OFFSET 0.056720 2.048850 -0.042750
				CHANNELS 3 Zrotation Yrotation Xrotation
				JOINT Neck
				{
					OFFSET 0.000000 0.000000 0.000000
					CHANNELS 3 Zrotation Yrotation Xrotation
					JOINT Neck1
					{
						OFFSET -0.054170 1.746240 0.172020
						CHANNELS 3 Zrotation Yrotation Xrotation
						JOINT Head
						{
							OFFSET 0.104070 1.761360 -0.123970
							CHANNELS 3 Zrotation Yrotation Xrotation
							End Site
							{
								OFFSET 0.000000 0.000000 0.000000
							}
						}
					}
				}
				JOINT LeftShoulder
				{
					OFFSET 0.000000 0.000000 0.000000
					CHANNELS 3 Zrotation Yrotation Xrotation
					JOINT LeftArm
					{
						OFFSET 3.362410 1.200890 -0.311210
						CHANNELS 3 Zrotation Yrotation Xrotation
						JOINT LeftForeArm
						{
							OFFSET 4.983000 -0.000000 -0.000000
							CHANNELS 3 Zrotation Yrotation Xrotation
							JOINT LeftHand
							{
								OFFSET 3.483560 -0.000000 -0.000000
								CHANNELS 3 Zrotation Yrotation Xrotation
								JOINT LeftFingerBase
								{
									OFFSET 0.000000 0.000000 0.000000
									CHANNELS 3 Zrotation Yrotation Xrotation
									JOINT LeftHandIndex1
									{
										OFFSET 0.715260 -0.000000 -0.000000
										CHANNELS 3 Zrotation Yrotation Xrotation
										End Site
										{
											OFFSET 0.000000 0.000000 0.000000
										}
									}
								}
								JOINT LThumb
								{
									OFFSET 0.000000 0.000000 0.000000
									CHANNELS 3 Zrotation Yrotation Xrotation
									End Site
									{
										OFFSET 0.000000 0.000000 0.000000
									}
								}
							}
						}
					}
				}
				JOINT RightShoulder
				{
					OFFSET 0.000000 0.000000 0.000000
					CHANNELS 3 Zrotation Yrotation Xrotation
					JOINT RightArm
					{
						OFFSET -3.136600 1.374050 -0.404650
						CHANNELS 3 Zrotation Yrotation Xrotation
						JOINT RightForeArm
						{
							OFFSET -5.241900 -0.000000 -0.000000
							CHANNELS 3 Zrotation Yrotation Xrotation
							JOINT RightHand
							{
								OFFSET -3.444170 -0.000000 -0.000000
								CHANNELS 3 Zrotation Yrotation Xrotation
								JOINT RightFingerBase
								{
									OFFSET 0.000000 0.000000 0.000000
									CHANNELS 3 Zrotation Yrotation Xrotation
									JOINT RightHandIndex1
									{
										OFFSET -0.622530 -0.000000 -0.000000
										CHANNELS 3 Zrotation Yrotation Xrotation
										End Site
										{
											OFFSET 0.000000 0.000000 0.000000
										}
									}
								}
								JOINT RThumb
								{
									OFFSET 0.000000 0.000000 0.000000
									CHANNELS 3 Zrotation Yrotation Xrotation
									End Site
									{
										OFFSET 0.000000 0.000000 0.000000
									}
								}
							}
						}
					}
				}
			}
		}
	}
}
}
MOTION
Frames: 7
Frame Time: 0.008333
16.062393 12.648213 2.998557 85.644316 -87.643480 1.951527 1.782591 -2.422346 -1.901230 -0.563570 -2.616161 -2.796145 -4.655707 -2.836211 -0.024593 10.708509 -13.515717 -14.297607 -1.795127 0.022749 -3.356740 0.000000 0.000000 0.000000 -7.197251 13.677454 4.799515 -67.870939 42.826975 -1.425318 -0.214956 -19.771161 -0.000105 -2.091420 -3.359098 0.065231 0.066379 0.102179 -0.000000 0.000000 0.000000 0.000000 0.000000 0.000000 0.000000 19.055678 -11.775174 4.702291 59.797508 -24.952791 -24.554119 -0.283471 7.118569 -0.004615 -0.857319 15.365540 -0.117741 -0.001746 -0.295957 0.000000 0.000000 0.000000 0.000000 0.000000 0.000000 0.000000 
16.027958 12.629370 2.999194 85.201789 -87.701220 2.456724 1.818926 -2.413475 -1.913789 -0.558445 -2.609953 -2.803566 -4.671353 -2.831282 -0.039413 10.748853 -13.542279 -14.332444 -1.806825 0.022332 -3.370608 0.000000 0.000000 0.000000 -7.295082 13.703390 4.805095 -67.888155 42.417832 -1.616004 -0.198031 -19.851964 -0.000165 -2.079436 -3.392930 0.065531 0.067265 0.103647 -0.000000 0.000000 0.000000 0.000000 0.000000 0.000000 0.000000 19.150044 -11.774235 4.703335 59.817779 -24.612401 -24.238122 -0.288976 7.408799 -0.004948 -1.026348 15.296494 -0.140642 0.000280 -0.297308 0.000000 0.000000 0.000000 0.000000 0.000000 0.000000 0.000000 
15.992962 12.611125 2.999940 84.651227 -87.768715 3.057001 1.861125 -2.404414 -1.921643 -0.552158 -2.603549 -2.809397 -4.689565 -2.826242 -0.053665 10.793678 -13.562096 -14.369141 -1.820882 0.021706 -3.385127 0.000000 0.000000 0.000000 -7.402652 13.732364 4.810394 -67.895980 41.970198 -1.807821 -0.179248 -19.918656 -0.000239 -2.051477 -3.413460 0.065132 0.068027 0.104917 -0.000000 0.000000 0.000000 0.000000 0.000000 0.000000 0.000000 19.255447 -11.767257 4.704996 59.822651 -24.223219 -23.935110 -0.294662 7.647808 -0.005285 -1.188575 15.247086 -0.162543 0.002209 -0.298721 0.000000 0.000000 0.000000 0.000000 0.000000 0.000000 0.000000 
15.957282 12.593730 3.000959 83.923092 -87.850271 3.820185 1.914244 -2.393435 -1.926376 -0.543338 -2.595427 -2.814609 -4.711351 -2.819646 -0.067966 10.841236 -13.570255 -14.406597 -1.838367 0.020736 -3.399821 0.000000 0.000000 0.000000 -7.523226 13.761789 4.815032 -67.892551 41.484285 -1.994048 -0.158644 -19.973747 -0.000337 -2.003982 -3.424549 0.063931 0.068624 0.106028 -0.000000 0.000000 0.000000 0.000000 0.000000 0.000000 0.000000 19.372073 -11.748160 4.706875 59.814507 -23.795223 -23.638082 -0.299492 7.850717 -0.005615 -1.344947 15.214388 -0.183846 0.004092 -0.300226 0.000000 0.000000 0.000000 0.000000 0.000000 0.000000 0.000000 
15.920677 12.577268 3.002227 83.004064 -87.944190 4.761870 1.978447 -2.380350 -1.929417 -0.531898 -2.585481 -2.819602 -4.736521 -2.811404 -0.082049 10.890649 -13.569270 -14.444924 -1.858982 0.019456 -3.414716 0.000000 0.000000 0.000000 -7.656781 13.791004 4.818639 -67.873008 40.953710 -2.160368 -0.136254 -20.016942 -0.000462 -1.932511 -3.427655 0.061831 0.068999 0.107020 -0.000000 0.000000 0.000000 0.000000 0.000000 0.000000 0.000000 19.498364 -11.720033 4.709125 59.792905 -23.318980 -23.344841 -0.303450 8.005467 -0.005937 -1.495364 15.214164 -0.204645 0.005929 -0.301959 0.000000 0.000000 0.000000 0.000000 0.000000 0.000000 0.000000 
15.883334 12.561980 3.003413 82.046981 -88.036270 5.728226 2.044651 -2.369337 -1.932975 -0.520482 -2.577810 -2.824907 -4.764350 -2.805560 -0.095114 10.944470 -13.559666 -14.484557 -1.882911 0.017857 -3.429818 0.000000 0.000000 0.000000 -7.798095 13.819610 4.821462 -67.831093 40.373078 -2.294975 -0.113064 -20.052662 -0.000608 -1.837805 -3.419293 0.058731 0.069109 0.107878 -0.000000 0.000000 0.000000 0.000000 0.000000 0.000000 0.000000 19.638014 -11.685720 4.711152 59.759848 -22.789231 -23.051813 -0.306509 8.107579 -0.006254 -1.641113 15.255363 -0.225347 0.007734 -0.303970 0.000000 0.000000 0.000000 0.000000 0.000000 0.000000 0.000000 
15.845101 12.548081 3.004831 80.903856 -88.136700 6.867321 2.120666 -2.355857 -1.937056 -0.506572 -2.568024 -2.830836 -4.794561 -2.797778 -0.107667 10.998528 -13.545694 -14.526762 -1.909304 0.016044 -3.445590 0.000000 0.000000 0.000000 -7.949461 13.849094 4.823059 -67.763601 39.730370 -2.385731 -0.088913 -20.078430 -0.000789 -1.715409 -3.408238 0.054830 0.068911 0.108728 -0.000000 0.000000 0.000000 0.000000 0.000000 0.000000 0.000000 19.783612 -11.646877 4.713999 59.718131 -22.201757 -22.746507 -0.308438 8.162577 -0.006570 -1.790169 15.334276 -0.247247 0.009628 -0.306268 0.000000 0.000000 0.000000 0.000000 0.000000 0.000000 0.000000 
